<svg xmlns="http://www.w3.org/2000/svg" xmlns:xlink="http://www.w3.org/1999/xlink" width="2000" height="674" viewBox="0 0 2000 674">
  <defs>
    <style>
      .cls-1, .cls-3 {
        fill: #1a1a1a;
      }

      .cls-2 {
        fill-rule: evenodd;
        filter: url(#filter);
      }

      .cls-3 {
        font-size: 50px;
        text-anchor: middle;
        font-family: "Century Gothic";
        font-weight: 700;
      }
    </style>
    <filter id="filter" x="1117" y="1355" width="546" height="546" filterUnits="userSpaceOnUse">
      <feFlood result="flood" flood-color="#1a1a1a"/>
      <feComposite result="composite" operator="in" in2="SourceGraphic"/>
      <feBlend result="blend" in2="SourceGraphic"/>
    </filter>
  </defs>
  <g id="Imagotipo_V._Horizontal_Red." data-name="Imagotipo V. Horizontal Red.">
    <rect id="Rectángulo_2" data-name="Rectángulo 2" class="cls-1" x="657" y="128" width="17" height="398"/>
    <path id="Logo_Vectorial" data-name="Logo Vectorial" class="cls-2" d="M1471.74,1355.5v47.06c3.72-.23,7.44-0.45,11.16-0.68v-0.68c-4.24-4.98-9.74-16.03-9.57-21.83,0.8-.45,1.6-0.91,2.4-1.36,3.52-1.72,9.2-1.16,13.55-.68,24.57,2.66,24.4,9.57,32.67,25.23,4.77-.14,8.43.22,11.16,1.37q2.4,5.79,4.78,11.59h-10.36q54.6,112.185,109.19,224.39l11.16,0.69q2.4,6.48,4.79,12.96h-8.77q8.76,19.1,17.53,38.19c4.65,18.34-6.86,58.63-15.94,72.3-21.75,32.76-58.48,101.98-186.5,128.9-95.61,20.11-173.92-3.17-224.76-32.05-14.11-8.01-39.69-20.32-47.03-33.42v-6.14c5.88-6.88,19.25-21.52,31.09-22.51q17.925,11.25,35.86,22.51c21.1,11.33,45.74,20.57,71.73,27.28,28.69,7.41,62.13,10.14,97.24,6.14,88.08-10.04,141.02-50.79,184.11-132.32,0-.23,2.39-4.66-2.39-4.77H1262.92c-129.25-.31-127.15,2.95-132.31-10.23-25.15-72.56-12.04-148.44,21.52-204.62,6.81-11.39,24.56-39.95,39.85-39.56,8.73,4.72,26.25,12.4,27.1,23.19-8.39,15.96-23.26,29.59-31.88,46.38-18.2,35.48-34.66,101.39-15.94,148.69h99.63l12.75-27.96h-8.77v-2.05q3.2-5.8,6.38-11.6c3.45-.22,6.91-0.45,10.36-0.68q54.2-111.84,108.4-223.71h-10.36q2.79-6.135,5.58-12.28l11.95-2.04c4.94-18.2,16.96-29.17,46.23-23.87,2.99,8.55-6.08,16.15-7.97,25.23H1455c0.53-.23,1.07-0.45,1.6-0.68q-0.4-22.845-.8-45.7l0.8-.68h15.14Zm-15.14,284.41V1415.52q-9.57.345-19.13,0.68-53.79,111.855-107.6,223.71H1456.6Zm15.14-224.39v224.39h126.73q-54.6-112.185-109.19-224.39h-17.54Zm-15.14,266v-27.96H1322.7q-6.78,13.98-13.55,27.96H1456.6Zm15.14-27.96v27.96h146.65q-6.765-13.98-13.55-27.96h-133.1Z" transform="translate(-1067 -1302)"/>
    <text id="SELLART" class="cls-3" transform="matrix(6.72, 0, 0, 6.719, 1335.214, 448.269)">SELLART</text>
  </g>
</svg>
