<svg xmlns="http://www.w3.org/2000/svg" xmlns:xlink="http://www.w3.org/1999/xlink" width="2000" height="649" viewBox="0 0 2000 649">
  <defs>
    <style>
      .cls-1, .cls-4 {
        font-size: 50px;
        text-anchor: middle;
        font-family: "Century Gothic";
      }

      .cls-1, .cls-2, .cls-4 {
        fill: #1a1a1a;
      }

      .cls-1 {
        font-weight: 700;
      }

      .cls-3 {
        fill-rule: evenodd;
        filter: url(#filter);
      }
    </style>
    <filter id="filter" x="1118" y="227" width="546" height="546" filterUnits="userSpaceOnUse">
      <feFlood result="flood" flood-color="#1a1a1a"/>
      <feComposite result="composite" operator="in" in2="SourceGraphic"/>
      <feBlend result="blend" in2="SourceGraphic"/>
    </filter>
  </defs>
  <g id="Imagotipo_V._Horizontal" data-name="Imagotipo V. Horizontal">
    <text id="SELLART" class="cls-1" transform="matrix(6.72, 0, 0, 6.719, 1337.355, 392.583)">SELLART</text>
    <rect id="Rectángulo_1" data-name="Rectángulo 1" class="cls-2" x="658" y="121" width="17" height="397"/>
    <path id="Logo_Vectorial" data-name="Logo Vectorial" class="cls-3" d="M1472.74,227.5v47.061l11.16-.682V273.2c-4.24-4.976-9.74-16.026-9.57-21.826l2.4-1.364c3.52-1.714,9.2-1.153,13.55-.682,24.57,2.666,24.4,9.571,32.67,25.236,4.77-.141,8.43.214,11.16,1.364q2.4,5.8,4.78,11.595h-10.36q54.6,112.185,109.19,224.394l11.16,0.682q2.4,6.48,4.79,12.959h-8.77q8.76,19.1,17.53,38.2c4.65,18.336-6.86,58.628-15.94,72.3-21.75,32.761-58.48,101.987-186.5,128.908-95.61,20.1-173.92-3.179-224.76-32.057-14.11-8.009-39.69-20.321-47.03-33.42v-6.139c5.88-6.884,19.25-21.523,31.09-22.507q17.925,11.251,35.86,22.507c21.1,11.334,45.74,20.567,71.73,27.282,28.69,7.41,62.13,10.139,97.24,6.139,88.08-10.035,141.02-50.788,184.12-132.318,0-.227,2.38-4.658-2.4-4.774H1263.92c-129.25-.308-127.15,2.95-132.31-10.231-25.15-72.553-12.04-148.433,21.52-204.615,6.81-11.4,24.56-39.954,39.85-39.559,8.73,4.715,26.25,12.4,27.1,23.19-8.39,15.959-23.26,29.584-31.88,46.379-18.2,35.481-34.66,101.393-15.94,148.687h99.63q6.375-13.98,12.75-27.964h-8.77v-2.046q3.2-5.8,6.38-11.6l10.36-.682,108.4-223.712h-10.36l5.58-12.277,11.95-2.046c4.94-18.195,16.96-29.164,46.23-23.872,2.99,8.556-6.08,16.157-7.97,25.236H1456c0.53-.227,1.07-0.455,1.6-0.682q-0.4-22.846-.8-45.7c0.27-.228.53-0.455,0.8-0.682h15.14ZM1457.6,511.914V287.52l-19.13.682q-53.79,111.844-107.6,223.712H1457.6Zm15.14-224.394V511.914h126.73q-54.6-112.185-109.19-224.394h-17.54Zm-15.14,266V525.555H1323.7q-6.78,13.981-13.55,27.964H1457.6Zm15.14-27.964v27.964h146.65q-6.765-13.98-13.55-27.964h-133.1Z" transform="translate(-1067 -181)"/>
    <text id="Una_Web_para_Artistas" data-name="Una Web para Artistas" class="cls-4" transform="matrix(1.262, 0, 0, 1.262, 1374.345, 484.409)">Una Web para Artistas</text>
  </g>
</svg>
