<svg xmlns="http://www.w3.org/2000/svg" width="1000" height="1000" viewBox="0 0 1000 1000">
  <defs>
    <style>
      .cls-1 {
        fill-rule: evenodd;
      }
    </style>
  </defs>
  <path id="Forma_1" data-name="Forma 1" class="cls-1" d="M630.438,63v75.385l17.873-1.093V136.2c-6.79-7.972-15.6-25.671-15.32-34.961l3.83-2.186c5.642-2.747,14.75-1.847,21.7-1.093,39.367,4.27,39.091,15.331,52.343,40.424,7.64-.227,13.494.343,17.873,2.185l7.66,18.573h-16.6l174.9,359.442,17.873,1.093,7.66,20.758H906.2l28.086,61.181c7.444,29.371-9.714,94.107-23.205,116.661-32.006,53.513-95.877,162.56-301.068,205.636-153.155,32.152-278.575-5.092-360.019-51.349-22.59-12.83-63.575-32.551-75.324-53.534V809.2c9.414-11.027,30.83-34.477,49.79-36.053l57.45,36.053c33.793,18.154,73.264,32.945,114.9,43.7,45.943,11.87,99.641,17.3,155.753,9.833,148.585-19.768,292.981-127.891,294.91-211.951,0-.364.177-7.6-7.471-7.781-183.821,0-360.227.134-544.048,0.134-207.031-.493-203.671,4.725-211.927-16.388C43.736,510.528,64.731,388.981,118.5,298.987c10.906-18.256,39.34-64,63.833-63.367,13.975,7.552,42.036,19.858,43.407,37.146-13.448,25.562-37.264,47.388-51.067,74.292-29.157,56.834-55.517,162.413-25.533,238.171H308.718l20.427-44.793H315.1v-3.278l10.213-18.573,16.6-1.092q86.8-179.157,173.626-358.35h-16.6q4.469-9.833,8.937-19.666l19.15-3.277c7.916-29.146,27.159-46.716,74.047-38.239,4.793,13.7-9.742,25.881-12.767,40.424h15.32l2.553-1.093q-0.638-36.6-1.276-73.2L606.181,63h24.257ZM606.181,518.585V159.143l-30.64,1.092L403.192,518.585H606.181Zm24.257-359.442V518.585h202.99l-174.9-359.442H630.438ZM606.181,585.229V540.436H391.7L370,585.229H606.181Zm24.257-44.793v44.793H865.345l-21.7-44.793h-213.2Z"/>
</svg>
